<svg id="Layer_1" data-name="Layer 1" xmlns="http://www.w3.org/2000/svg" viewBox="0 0 153 70"><defs><style>.cls-1{fill:#54af47;}.cls-2{fill:none;stroke:#000;stroke-miterlimit:10;stroke-width:1.25px;}</style></defs><path d="M54.7,67.76H46.89v-3c0-12.83-.06-25.66,0-38.49.06-9.68-9.07-11.54-15.31-9.35-2.5.87-3.28,3.23-3.27,5.85,0,14,0,28,0,41.94,0,3.2,0,3.2-3.21,3.2H20.45c-.06-1.06-.15-1.92-.15-2.79q0-21.21,0-42.43c0-6.81,4.32-11.63,11.11-12.06a65.63,65.63,0,0,1,10.86.2A14.34,14.34,0,0,1,54.83,24.56c.11,14,0,28,0,41.94C54.85,66.82,54.78,67.14,54.7,67.76Z"/><path d="M89.7,10.63v5.3H78.22c-6.55,0-10.3,3.73-10.3,10.22q0,12.83,0,25.65C67.92,58.23,71.61,61.94,78,62H89.7v6c-6-.36-12-.12-17.76-1.21-6.8-1.3-11.85-8.21-12-15.21-.15-8.38-.17-16.77,0-25.15.15-7.52,6.25-14.74,13.7-15.63C78.85,10.12,84.17,10.63,89.7,10.63Z"/><path d="M7.56,10.64H15.3v57.1H7.56Z"/><path class="cls-1" d="M129.77,38.2c0,4.52,0,9,0,13.55,0,1.36-.35,2-1.79,1.83-1.65-.24-1.9.65-1.87,2,.07,3.37,0,6.74,0,10.1,0,1.62-.29,2.3-2.14,2.29-6.19,0-6.19,0-6.19-6.12,0-2.06-.07-4.11,0-6.16.07-1.52-.28-2.26-2-2.17-2.47.13-5,.11-7.42,0-1.57-.06-2,.57-1.93,2,.09,3.45-.06,6.9.07,10.34.06,1.68-.55,2.06-2.12,2.08-6.18.05-6.18.1-6.18-6.14,0-2.13-.06-4.27,0-6.4,0-1.35-.38-2-1.81-1.86s-1.76-.64-1.75-1.93c0-8.86-.07-17.73,0-26.6a14.93,14.93,0,0,1,13.78-14.54,48.11,48.11,0,0,1,7.4,0A15,15,0,0,1,129.66,25.4c0,4.27,0,8.54,0,12.8Zm-26.71-2.76c0,3.53,0,7.06,0,10.59,0,1.21.33,1.78,1.68,1.77,5-.06,10.06,0,15.08,0,1.3,0,1.72-.48,1.71-1.73,0-7,.09-14-.08-20.94A9,9,0,0,0,112,16.31a9.18,9.18,0,0,0-9,9.27C103,28.87,103.06,32.15,103.06,35.44Z"/><circle class="cls-2" cx="137.74" cy="11.74" r="8.45"/><path d="M139.68,16.17l-1.82-2.62h-2v2.62h-2.17V6.77h4.07c2.51,0,4.08,1.3,4.08,3.41a3,3,0,0,1-1.94,3l2.11,3Zm-2.05-7.63h-1.77v3.28h1.77c1.33,0,2-.62,2-1.64S139,8.54,137.63,8.54Z"/></svg>